<?xml version="1.0"?>
<svg version="1.1" xmlns="http://www.w3.org/2000/svg" width="651" height="300" style=""><path fill="#123eb8" d=""/><path fill="#00f1f5" d="M46.5,139.5l10.5,0c13,0,22,5.5,22,17.3c0,8.7-4.1,14-12,16.5c9.4,2.7,14.3,8.3,14.3,16c0,14.7-9.8,20.7-26,20.7l-31.8,0l0-8.5l7.5-3l0-47l-7.5-3l0-8.5z M46.5,168.3l5.8,0c7.3,0,11.2-3.1,11.2-9.3c0-5.2-3.7-7.5-8.5-7.5l-8.5,0l0,16.8z M46.5,198l8.3,0c7,0,10.7-3.2,10.7-8.7c0-7.3-4.2-10.5-13.2-10.5l-5.8,0l0,19.2z M130.351,210l-1.8-6.5s-7.7,7.5-16.2,7.5c-9.7,0-15.6-5.7-15.6-15.7c0-11.8,8.9-16.5,24.1-16.5l7,0l0-5.5c0-5.1-2.7-7.3-7.7-7.3c-5.1,0-8.8,1.5-8.8,1.5l-1.5,6.3l-9,0l-0.7-14.8s12.1-4,21.7-4c15.2,0,21,5.3,21,19.8l0,24.7l7.5,1.8l0,8z M127.851,187.3l-5.7,0c-7.8,0-10.9,2-10.9,6.5c0,3.8,2.1,6,5.9,6c5.3,0,10.7-5.8,10.7-5.8l0-6.7z M184.502,156l0.7,6.9s9.5-7.7,18.4-7.7c9.7,0,15.2,6.9,15.2,17.8l0,26.5l7,2.5l0,8l-27.5,0l0-8l5.5-2.5l0-23.8c0-4.6-2.6-8-6.8-8c-6.2,0-10.7,5.7-10.7,5.7l0,26.1l5.5,2.5l0,8l-28.5,0l0-8l8-2.5l0-32.5l-8-2.5l0-8z M260.253,176.1l6.6,0l6.8-10.2l-4.4-1.4l0-8l25.8-0.5l0,8.5l-7,1.3l-9.3,13.1l11.2,20.7l7.6,2.4l0,8l-18.5,0l-12.4-24.4l-6.4,0l0,13.9l5.5,2.5l0,8l-28.5,0l0-8l8-2.5l0-56.2l-8-2l0-8l23-0.8l0,43.6z"/></svg>
